# xmcd
#
# Track frame offsets:
#	150
#	14575
#	26708
#	47476
#	59074
#	73562
#	89061
#	105971
#	118645
#	129361
#	142643
#	157337
#	169773
#
# Disc length: 2464 seconds
#
# Revision: 0
# Processed by: cddbd v1.5.2PL0 Copyright (c) Steve Scherf et al.
# Submitted via: dBpowerAMP V4.0
#
DISCID=b1099e0d
DTITLE=Moussu T E Lei Jovents - Forever Polida
DYEAR=2006
DGENRE=Blues
TTITLE0=O Que Calor
TTITLE1=Par la Fenetre
TTITLE2=Sur La Rive
TTITLE3=Forever Polida
TTITLE4=Mon Escarrida
TTITLE5=Sus L Autura
TTITLE6=Les Plaisirs De la Peche
TTITLE7=La Madona Dau TER
TTITLE8=Quand Tu N As Que Des Bons Amis
TTITLE9=Lo Libre Salabrum
TTITLE10=Boulevard Bertolucci
TTITLE11=La Grand
TTITLE12=Per Soleta Companhia
EXTD=
EXTT0=
EXTT1=
EXTT2=
EXTT3=
EXTT4=
EXTT5=
EXTT6=
EXTT7=
EXTT8=
EXTT9=
EXTT10=
EXTT11=
EXTT12=
PLAYORDER=
